<svg xmlns="http://www.w3.org/2000/svg" width="430" height="430" style="width:100%;height:100%;transform:translate3d(0,0,0);content-visibility:visible" viewBox="0 0 430 430"><defs><clipPath id="e"><path d="M0 0h430v430H0z"/></clipPath><clipPath id="i"><path d="M0 0h430v430H0z"/></clipPath><clipPath id="h"><path d="M0 0h430v430H0z"/></clipPath><clipPath id="f"><path d="M0 0h430v430H0z"/></clipPath><filter id="a" width="100%" height="100%" x="0%" y="0%" filterUnits="objectBoundingBox"><feComponentTransfer in="SourceGraphic"><feFuncA tableValues="1.0 0.0" type="table"/></feComponentTransfer></filter><filter id="c" width="100%" height="100%" x="0%" y="0%" filterUnits="objectBoundingBox"><feComponentTransfer in="SourceGraphic"><feFuncA tableValues="1.0 0.0" type="table"/></feComponentTransfer></filter><path id="b" style="display:none"/><path id="d" style="display:none"/><mask id="j" mask-type="alpha"><g filter="url(#a)"><path fill="#fff" d="M0 0h430v430H0z" opacity="0"/><use xmlns:ns1="http://www.w3.org/1999/xlink" ns1:href="#b"/></g></mask><mask id="g" mask-type="alpha"><g filter="url(#c)"><path fill="#fff" d="M0 0h430v430H0z" opacity="0"/><use xmlns:ns2="http://www.w3.org/1999/xlink" ns2:href="#d"/></g></mask></defs><g clip-path="url(#e)"><g clip-path="url(#f)" style="display:none"><path class="secondary" style="display:none"/><path class="secondary" style="mix-blend-mode:multiply;display:none"/><g mask="url(#g)" style="mix-blend-mode:multiply;display:none"><path class="secondary"/></g><path fill="none" class="primary" style="display:none"/><path fill="none" class="secondary" style="display:none"/></g><g clip-path="url(#h)" style="display:block"><path fill="#3A3347" d="M-155-135c-16.569 0-30 13.431-30 30v210c0 16.569 13.431 30 30 30h310c16.569 0 30-13.431 30-30v-210c0-16.569-13.431-30-30-30z" class="secondary" style="display:block" transform="translate(215 215)"/><g opacity=".3" style="mix-blend-mode:multiply;display:block"><path fill="#3A3347" d="M30 110c0-16.569 13.431-30 30-30h55c-16.569 0-30 13.431-30 30v210c0 16.569 13.431 30 30 30H60c-16.569 0-30-13.431-30-30z" class="secondary" opacity="1"/></g><path fill="none" stroke="#2CA58D" stroke-linecap="round" stroke-linejoin="round" stroke-width="7" d="M125.555 250v-35m0-35v35M75 250v-35m0-35v35m0 0h50.555m53.195 35v-70m-28.194 0h56.388m20 70v-70l29.5 34.028 29.5-34.028v70m81 0h-48.611v-70" class="primary" style="display:block"/><g opacity=".4" style="mix-blend-mode:multiply;display:block"><path fill="#3A3347" d="M30 110c0-16.569 13.431-30 30-30h310c16.569 0 30 13.431 30 30v210c0 16.569-13.431 30-30 30H60c-16.569 0-30-13.431-30-30zm20 0v210c0 5.523 4.477 10 10 10h310c5.523 0 10-4.477 10-10V110c0-5.523-4.477-10-10-10H60c-5.523 0-10 4.477-10 10" class="secondary" opacity="1"/></g></g><g clip-path="url(#i)" style="display:none"><path class="secondary" style="display:none"/><g mask="url(#j)" style="mix-blend-mode:multiply;display:none"><path class="secondary"/></g><path class="secondary" style="mix-blend-mode:multiply;display:none"/><g fill="none" style="display:none"><path class="primary"/><path class="primary"/><path class="primary"/><path class="primary"/><path class="primary"/></g></g></g></svg>